<svg xmlns="http://www.w3.org/2000/svg" width="123" height="123" viewBox="0 0 123 123">
  <path class="cls-1" d="M1382.04,4420.67l8.96-5.17-8.96-5.17,7.78-6.83-9.8-3.33,6.3-8.2-10.26-1.36,4.58-9.28-10.33.68,2.68-10-10,2.68,0.68-10.32-9.28,4.57-1.35-10.26-8.21,6.3-3.33-9.8-6.82,7.78-5.18-8.96-5.17,8.96-6.83-7.78-3.32,9.8-8.21-6.3-1.36,10.26-9.28-4.58,0.68,10.33-10-2.68,2.68,10-10.33-.68,4.58,9.28-10.26,1.35,6.3,8.21-9.8,3.33,7.78,6.83-8.96,5.17,8.96,5.17-7.78,6.83,9.8,3.32-6.3,8.21,10.26,1.36-4.58,9.28,10.33-.68-2.68,10,10-2.68-0.68,10.33,9.28-4.58,1.35,10.26,8.22-6.3,3.32,9.8,6.83-7.78,5.17,8.96,5.17-8.96,6.83,7.78,3.33-9.8,8.2,6.3,1.36-10.26,9.28,4.58-0.68-10.33,10,2.68-2.68-10,10.33,0.68-4.58-9.28,10.26-1.35-6.3-8.22,9.8-3.32Z" transform="translate(-1268 -4354)"/>
</svg>
