<?xml version="1.0" encoding="UTF-8"?><!DOCTYPE svg PUBLIC "-//W3C//DTD SVG 1.1//EN" "http://www.w3.org/Graphics/SVG/1.1/DTD/svg11.dtd"><svg xmlns="http://www.w3.org/2000/svg"><symbol id="icon-arrow" viewBox="0 0 270.5 53.5">
    <style>
        .st0{fill:none;stroke:#34c399}
    </style>
    <path class="st0" d="M.5 51.5s200-107 269-10"/>
    <path class="st0" d="M260.5 36.4l9 5-5-18"/>
</symbol><symbol id="icon-check" viewBox="0 0 512 512">
    <path d="M173.898 439.404l-166.4-166.4c-9.997-9.997-9.997-26.206 0-36.204l36.203-36.204c9.997-9.998 26.207-9.998 36.204 0L192 312.69 432.095 72.596c9.997-9.997 26.207-9.997 36.204 0l36.203 36.204c9.997 9.997 9.997 26.206 0 36.204l-294.4 294.401c-9.998 9.997-26.207 9.997-36.204-.001z"/>
</symbol><symbol id="icon-decor" viewBox="0 0 123 123">
    <path class="cls-1" d="M114.04 66.67L123 61.5l-8.96-5.17 7.78-6.83-9.8-3.33 6.3-8.2-10.26-1.36 4.58-9.28-10.33.68 2.68-10-10 2.68.68-10.32-9.28 4.57-1.35-10.26-8.21 6.3-3.33-9.8-6.82 7.78L61.5 0l-5.17 8.96-6.83-7.78-3.32 9.8-8.21-6.3-1.36 10.26-9.28-4.58.68 10.33-10-2.68 2.68 10-10.33-.68 4.58 9.28-10.26 1.35 6.3 8.21-9.8 3.33 7.78 6.83L0 61.5l8.96 5.17-7.78 6.83 9.8 3.32-6.3 8.21 10.26 1.36-4.58 9.28 10.33-.68-2.68 10 10-2.68-.68 10.33 9.28-4.58 1.35 10.26 8.22-6.3 3.32 9.8 6.83-7.78L61.5 123l5.17-8.96 6.83 7.78 3.33-9.8 8.2 6.3 1.36-10.26 9.28 4.58-.68-10.33 10 2.68-2.68-10 10.33.68-4.58-9.28 10.26-1.35-6.3-8.22 9.8-3.32z"/>
</symbol><symbol id="icon-facebook" viewBox="0 0 10 19">
    <title>
        facebook
    </title>
    <path d="M9.766.157v2.946H8.014c-.64 0-1.071.134-1.295.402-.223.268-.335.67-.335 1.205v2.11h3.27l-.435 3.303H6.384v8.471H2.97v-8.47H.123V6.82H2.97V4.387c0-1.384.387-2.457 1.161-3.22C4.904.404 5.934.023 7.222.023c1.093 0 1.941.045 2.544.134z" fill-rule="evenodd"/>
</symbol><symbol id="icon-times" viewBox="0 0 352 512">
    <path d="M242.72 256l100.07-100.07c12.28-12.28 12.28-32.19 0-44.48l-22.24-22.24c-12.28-12.28-32.19-12.28-44.48 0L176 189.28 75.93 89.21c-12.28-12.28-32.19-12.28-44.48 0L9.21 111.45c-12.28 12.28-12.28 32.19 0 44.48L109.28 256 9.21 356.07c-12.28 12.28-12.28 32.19 0 44.48l22.24 22.24c12.28 12.28 32.2 12.28 44.48 0L176 322.72l100.07 100.07c12.28 12.28 32.2 12.28 44.48 0l22.24-22.24c12.28-12.28 12.28-32.19 0-44.48L242.72 256z"/>
</symbol></svg>